<svg xmlns="http://www.w3.org/2000/svg" viewBox="0 0 310.69 269.29"><defs><style>.cls-1{fill:#1d1d1b;}</style></defs><g id="Capa_2" data-name="Capa 2"><g id="Layer_1" data-name="Layer 1"><path class="cls-1" d="M260.22,44.18A151.29,151.29,0,0,0,153,0h-.61A151.55,151.55,0,0,0,45,44.46,149.86,149.86,0,0,0,1,151.79,8.27,8.27,0,0,0,8.51,160c0,.06,0,.11-.07.17H153.73c4.64,0,8.48-4.57,8.47-9.44l-.52-133.36c0-.15,0-.29-.05-.43a135.62,135.62,0,0,1,127,134.83,8.31,8.31,0,0,0,8.31,8.28h0a8.32,8.32,0,0,0,8.28-8.34A151.28,151.28,0,0,0,260.22,44.18Z"/><path class="cls-1" d="M64.35,269.29a11.39,11.39,0,0,1-8.84-3.8c-2.21-2.46-3.33-5.94-3.33-10.33V221.83c0-6.23-.86-11-2.56-14.19-1.51-2.82-4.58-4.19-9.39-4.19a14.63,14.63,0,0,0-8.75,2.81,16.49,16.49,0,0,0-5.85,7.84c-.9,2.7-1.36,8.11-1.36,16v25c0,4.55-1.15,8.08-3.41,10.47A11.65,11.65,0,0,1,12,269.29a11.23,11.23,0,0,1-8.69-3.8C1.12,263,0,259.55,0,255.16V197.37c0-4.29,1-7.6,3-9.85a10.79,10.79,0,0,1,8.4-3.47,11.43,11.43,0,0,1,5.82,1.51,11,11,0,0,1,4.22,4.53,13.3,13.3,0,0,1,1.34,4.3,34.72,34.72,0,0,1,9-6.87,33.85,33.85,0,0,1,15.53-3.47,31.67,31.67,0,0,1,15.3,3.68A24,24,0,0,1,73,198.33a24.86,24.86,0,0,1,2.79,8.51A82.47,82.47,0,0,1,76.37,218v37.21c0,4.49-1.12,8-3.31,10.41A11.27,11.27,0,0,1,64.35,269.29Z"/><path class="cls-1" d="M201.2,226.67a46.71,46.71,0,0,1-2.83,16.48,35.78,35.78,0,0,1-21,21.28,46.12,46.12,0,0,1-16.75,2.89,44.68,44.68,0,0,1-16.6-2.93A36.77,36.77,0,0,1,131.27,256a36,36,0,0,1-8.19-12.89,46.41,46.41,0,0,1-2.79-16.44A47,47,0,0,1,123.12,210,35.1,35.1,0,0,1,144,188.91a49.23,49.23,0,0,1,33.35,0,36.45,36.45,0,0,1,12.87,8.35,35.87,35.87,0,0,1,8.15,12.89A46.76,46.76,0,0,1,201.2,226.67Zm-20.4,0q0-12.22-5.47-19a17.89,17.89,0,0,0-14.7-6.81,18.43,18.43,0,0,0-10.49,3,19.32,19.32,0,0,0-7,9,40.08,40.08,0,0,0,0,27.54,19.73,19.73,0,0,0,6.92,9,18.25,18.25,0,0,0,10.61,3.11,17.84,17.84,0,0,0,14.7-6.85Q180.8,238.76,180.8,226.67Z"/><path class="cls-1" d="M299.41,269.29a11,11,0,0,1-7.16-2.42,35.79,35.79,0,0,1-5.9-6.67l0,0-13.14-19-13.48,19a39,39,0,0,1-5.88,6.75,10.66,10.66,0,0,1-7,2.36,11.6,11.6,0,0,1-7.89-2.87,9,9,0,0,1-3.39-6.94c0-2.54,1.49-5.86,4.54-10.15l17.55-24.75-15.44-20.45c-3.11-3.92-4.64-7.37-4.64-10.49a8.92,8.92,0,0,1,3.19-6.82,11.5,11.5,0,0,1,7.94-2.77,10.82,10.82,0,0,1,7.19,2.44,38.3,38.3,0,0,1,5.79,6.56l11.56,15.56,11.23-15.54a35.82,35.82,0,0,1,5.9-6.68,11,11,0,0,1,7.08-2.34,11.88,11.88,0,0,1,7.94,2.7,8.73,8.73,0,0,1,3.34,6.89,11.4,11.4,0,0,1-1.3,5.26,34.54,34.54,0,0,1-3.51,5.25l-15.41,20.43L306,249.33c3.19,4.5,4.68,7.77,4.68,10.3a8.79,8.79,0,0,1-3.38,6.92A11.83,11.83,0,0,1,299.41,269.29Z"/></g></g></svg>